# 3ds Max Wavefront OBJ Exporter v0.97b - (c)2007 guruware
# File Created: 13.01.2017 22:22:52

mtllib barca.mtl

#
# object Layer_02zw
#

v  31.5978 9.9783 15.9674
v  48.7826 12.7500 1.0000
v  46.1093 12.7500 0.9902
v  31.5978 9.9783 13.7500
v  -32.1522 9.4239 19.8478
v  -32.1522 9.4239 22.0652
v  12.1956 9.4239 22.0652
v  12.1956 9.4239 19.8478
v  39.9130 0.5543 1.0000
v  43.2391 0.5543 1.0000
v  45.4565 6.0978 1.0000
v  47.6739 6.0978 1.0000
v  11.0869 2.7717 20.9565
v  -31.0435 2.7717 20.9565
v  29.3804 4.4348 15.4130
v  46.1093 8.3152 0.9902
v  31.5978 5.5435 13.7500
v  12.1956 3.8804 19.8478
v  -32.1522 3.8804 19.8478
v  51.0000 12.7500 1.0000
v  8.8696 -7.2065 10.9783
v  9.9783 -2.7717 17.6304
v  -29.9348 -2.7717 16.5217
v  -28.8261 -7.2065 9.8696
v  26.0543 -1.1087 14.3043
v  22.1739 -6.0978 8.2065
v  -27.7174 -9.4239 1.0000
v  -27.7174 -11.6413 1.0000
v  7.7609 -10.5326 1.0000
v  7.7609 -12.7500 1.0000
v  18.2935 -11.6413 1.0000
v  18.2935 -9.4239 1.0000
v  22.1739 -8.3152 1.0000
v  31.0435 -4.9891 1.0000
v  31.0435 -7.2065 1.0000
v  -51.0000 6.0978 16.5217
v  -51.0000 11.6413 17.6304
v  -51.0000 0.5543 13.1957
v  -51.0000 -2.7717 6.5435
v  -45.4565 -4.9891 1.0000
v  -48.7826 11.6413 15.4130
v  -48.7826 6.0978 15.4130
v  -45.4565 -7.2065 1.0000
v  48.7826 12.7500 -1.0000
v  31.5978 9.9783 -15.9674
v  46.1093 12.7500 -0.9902
v  31.5978 9.9783 -13.7500
v  -32.1522 9.4239 -22.0652
v  -32.1522 9.4239 -19.8478
v  12.1956 9.4239 -22.0652
v  12.1956 9.4239 -19.8478
v  43.2391 0.5543 -1.0000
v  39.9130 0.5543 -1.0000
v  45.4565 6.0978 -1.0000
v  47.6739 6.0978 -1.0000
v  11.0869 2.7717 -20.9565
v  -31.0435 2.7717 -20.9565
v  29.3804 4.4348 -15.4130
v  46.1093 8.3152 -0.9902
v  31.5978 5.5435 -13.7500
v  12.1956 3.8804 -19.8478
v  -32.1522 3.8804 -19.8478
v  51.0000 12.7500 -1.0000
v  9.9783 -2.7717 -17.6304
v  8.8696 -7.2065 -10.9783
v  -29.9348 -2.7717 -16.5217
v  -28.8261 -7.2065 -9.8696
v  26.0543 -1.1087 -14.3043
v  22.1739 -6.0978 -8.2065
v  -27.7174 -11.6413 -1.0000
v  -27.7174 -9.4239 -1.0000
v  7.7609 -10.5326 -1.0000
v  7.7609 -12.7500 -1.0000
v  18.2935 -11.6413 -1.0000
v  18.2935 -9.4239 -1.0000
v  22.1739 -8.3152 -1.0000
v  31.0435 -4.9891 -1.0000
v  31.0435 -7.2065 -1.0000
v  -51.0000 6.0978 -16.5217
v  -51.0000 11.6413 -17.6304
v  -51.0000 0.5543 -13.1957
v  -51.0000 -2.7717 -6.5435
v  -45.4565 -4.9891 -1.0000
v  -48.7826 11.6413 -15.4130
v  -48.7826 6.0978 -15.4130
v  -45.4565 -7.2065 -1.0000
v  39.9130 0.5543 -1.2174
v  31.0435 -4.9891 -1.2174
v  45.4565 6.0978 -1.2174
v  48.7826 12.7500 -1.2174
v  46.1093 8.3152 -1.2272
v  46.1093 12.7500 -1.2272
v  22.1739 -6.0978 -8.4239
v  8.8696 -7.2065 -11.1957
v  -28.8261 -7.2065 -10.0870
v  -51.0000 -2.7717 -6.7609
v  -45.4565 -4.9891 -1.2174
v  -45.4565 -7.2065 -1.2174
v  51.0000 12.7500 -1.2174
v  -27.7174 -11.6413 -1.2174
v  7.7609 -12.7500 -1.2174
v  18.2935 -11.6413 -1.2174
v  31.0435 -7.2065 -1.2174
v  43.2391 0.5543 -1.2174
v  47.6739 6.0978 -1.2174
v  -32.1522 3.8804 -20.0652
v  -32.1522 1.6630 -20.0652
v  -32.1522 1.6630 19.8478
v  -24.3913 1.6630 -20.0652
v  -24.3913 3.8804 -20.0652
v  -24.3913 1.6630 19.8478
v  -24.3913 3.8804 19.8478
v  12.1956 1.6630 -20.0652
v  12.1956 3.8804 -20.0652
v  12.1956 1.6630 19.8478
v  4.4348 3.8804 -20.0652
v  4.4348 1.6630 -20.0652
v  4.4348 3.8804 19.8478
v  4.4348 1.6630 19.8478
v  -48.7826 6.0978 -15.6304
v  -48.7826 11.6413 -15.6304
v  -51.0000 11.6413 -17.8478
v  -51.0000 0.5543 -13.4130
v  -51.0000 6.0978 -16.7391
# 124 vertices

vn -0.0007 0.9834 0.1813
vn -0.1876 0.9822 -0.0000
vn 0.0000 1.0000 -0.0000
vn -0.0286 0.9996 -0.0000
vn 0.0000 0.0000 1.0000
vn 0.0000 -0.1644 0.9864
vn 0.2985 -0.2124 0.9305
vn 0.3009 -0.2054 0.9313
vn 0.6504 -0.3252 0.6865
vn 0.6492 -0.3283 0.6862
vn -0.6603 0.0000 -0.7510
vn -0.2998 0.0000 -0.9540
vn 0.0000 0.0000 -1.0000
vn -0.0155 -0.8308 0.5564
vn -0.0163 -0.8332 0.5527
vn -0.1968 0.8165 -0.5428
vn 0.1787 -0.8321 0.5250
vn -0.0071 -0.9703 0.2417
vn -0.0296 -0.9473 0.3190
vn 0.0997 -0.9472 0.3047
vn 0.1494 -0.9259 0.3469
vn 0.2634 -0.9220 0.2837
vn 0.3374 -0.8997 0.2768
vn 0.0000 -0.5145 0.8575
vn -0.0216 -0.6272 0.7786
vn 0.2239 -0.5340 0.8153
vn 0.3005 -0.3572 0.8844
vn -0.4840 0.7744 -0.4074
vn -0.4239 0.8143 -0.3965
vn 0.6310 -0.4976 0.5951
vn 0.5774 -0.5773 0.5774
vn -0.2441 -0.1989 0.9491
vn -0.2460 -0.1901 0.9504
vn -0.2173 -0.6359 0.7405
vn -0.2663 -0.4959 0.8265
vn -0.2416 -0.8255 0.5101
vn -0.2072 -0.8750 0.4375
vn -0.2373 -0.9490 0.2076
vn -0.2174 -0.9616 0.1672
vn 0.1322 0.9912 -0.0000
vn 0.0944 0.9911 0.0944
vn 0.2577 0.0000 -0.9662
vn -0.0007 0.9834 -0.1813
vn 0.0000 -0.1644 -0.9864
vn 0.2985 -0.2124 -0.9305
vn 0.3009 -0.2054 -0.9313
vn 0.6504 -0.3252 -0.6865
vn 0.6492 -0.3283 -0.6862
vn -0.6603 0.0000 0.7510
vn -0.2998 0.0000 0.9540
vn -0.0155 -0.8308 -0.5564
vn -0.0163 -0.8332 -0.5527
vn 0.1968 -0.8165 -0.5428
vn 0.1787 -0.8321 -0.5250
vn -0.0071 -0.9703 -0.2417
vn -0.0296 -0.9473 -0.3190
vn 0.0997 -0.9472 -0.3047
vn 0.1494 -0.9259 -0.3469
vn 0.2634 -0.9220 -0.2837
vn 0.3374 -0.8997 -0.2768
vn 0.0000 -0.5145 -0.8575
vn -0.0216 -0.6272 -0.7786
vn 0.2239 -0.5340 -0.8153
vn 0.3005 -0.3572 -0.8844
vn 0.4840 -0.7744 -0.4074
vn 0.4239 -0.8143 -0.3965
vn 0.6310 -0.4976 -0.5951
vn 0.5774 -0.5773 -0.5774
vn -0.2441 -0.1989 -0.9491
vn -0.2460 -0.1901 -0.9504
vn -0.2173 -0.6359 -0.7405
vn -0.2663 -0.4959 -0.8265
vn -0.2416 -0.8255 -0.5101
vn -0.2072 -0.8750 -0.4375
vn -0.2373 -0.9490 -0.2076
vn -0.2174 -0.9616 -0.1672
vn 0.0944 0.9911 -0.0944
vn 0.2577 0.0000 0.9662
vn -0.5300 0.8480 -0.0000
vn -0.7071 0.7071 -0.0000
vn -0.8944 0.4472 -0.0000
vn -1.0000 0.0000 -0.0000
vn -0.1240 0.9923 -0.0000
vn -0.0830 0.9965 -0.0000
vn 0.0000 -1.0000 -0.0000
vn 0.1961 0.9806 -0.0000
vn -0.3714 -0.9285 -0.0000
vn -0.2425 -0.9701 -0.0000
vn -0.0312 -0.9995 -0.0000
vn 0.1047 -0.9945 -0.0000
vn 0.3285 -0.9445 -0.0000
vn 0.5369 -0.8437 -0.0000
vn 0.7809 -0.6247 -0.0000
vn 0.8944 -0.4472 -0.0000
vn 1.0000 0.0000 -0.0000
# 95 vertex normals

vt 0.8095 0.1385 0.0000
vt 0.9778 0.4774 0.0000
vt 0.9516 0.4776 0.0000
vt 0.8095 0.1887 0.0000
vt 0.1851 0.0507 0.0000
vt 0.1851 0.0005 0.0000
vt 0.6194 0.0005 0.0000
vt 0.6194 0.0507 0.0000
vt 0.8909 0.5217 0.0000
vt 0.9235 0.5217 0.0000
vt 0.9452 0.7389 0.0000
vt 0.9669 0.7389 0.0000
vt 0.6086 0.6086 0.0000
vt 0.6194 0.8692 0.0000
vt 0.1851 0.8692 0.0000
vt 0.1960 0.6086 0.0000
vt 0.8095 0.8909 0.0000
vt 0.7878 0.6737 0.0000
vt 0.9778 0.9995 0.0000
vt 0.0484 0.9995 0.0000
vt 0.0484 0.8258 0.0000
vt 0.1905 0.7172 0.0000
vt 0.1905 0.8909 0.0000
vt 0.3806 0.8692 0.0000
vt 0.3806 0.6520 0.0000
vt 0.8149 0.6520 0.0000
vt 0.8149 0.8692 0.0000
vt 0.9995 0.9995 0.0000
vt 0.4131 0.2515 0.0000
vt 0.4023 0.1009 0.0000
vt 0.7932 0.1260 0.0000
vt 0.7823 0.2766 0.0000
vt 0.5977 0.1009 0.0000
vt 0.7552 0.1762 0.0000
vt 0.7172 0.3142 0.0000
vt 0.2828 0.3142 0.0000
vt 0.2285 0.1308 0.0000
vt 0.2285 0.0439 0.0000
vt 0.5760 0.0874 0.0000
vt 0.5760 0.0005 0.0000
vt 0.6792 0.0439 0.0000
vt 0.6792 0.1308 0.0000
vt 0.7715 0.4774 0.0000
vt 0.4240 0.4774 0.0000
vt 0.3208 0.4774 0.0000
vt 0.2828 0.4774 0.0000
vt 0.1960 0.4774 0.0000
vt 0.8040 0.3045 0.0000
vt 0.8040 0.2177 0.0000
vt 0.3914 0.0256 0.0000
vt 0.8040 0.0256 0.0000
vt 0.2448 0.1762 0.0000
vt 0.7552 0.4566 0.0000
vt 0.8909 0.4774 0.0000
vt 0.8040 0.4774 0.0000
vt 0.1091 0.4774 0.0000
vt 0.2122 0.1511 0.0000
vt 0.0548 0.4774 0.0000
vt 0.0005 0.7389 0.0000
vt 0.0005 0.9561 0.0000
vt 0.9995 0.2013 0.0000
vt 0.9995 0.1260 0.0000
vt 0.9995 0.3519 0.0000
vt 0.9452 0.4774 0.0000
vt 0.0222 0.1511 0.0000
vt 0.0005 0.1009 0.0000
vt 0.9778 0.9561 0.0000
vt 0.9778 0.7389 0.0000
vt 0.0548 0.3045 0.0000
vt 0.0548 0.2177 0.0000
vt 0.9778 0.5226 0.0000
vt 0.8095 0.8615 0.0000
vt 0.9516 0.5224 0.0000
vt 0.8095 0.8113 0.0000
vt 0.1851 0.9995 0.0000
vt 0.1851 0.9493 0.0000
vt 0.6194 0.9995 0.0000
vt 0.6194 0.9493 0.0000
vt 0.0765 0.5217 0.0000
vt 0.1091 0.5217 0.0000
vt 0.0548 0.7389 0.0000
vt 0.0331 0.7389 0.0000
vt 0.3914 0.6086 0.0000
vt 0.8040 0.6086 0.0000
vt 0.2122 0.6737 0.0000
vt 0.0222 0.9995 0.0000
vt 0.9516 0.8258 0.0000
vt 0.9516 0.9995 0.0000
vt 0.8095 0.7172 0.0000
vt 0.6194 0.6520 0.0000
vt 0.1851 0.6520 0.0000
vt 0.0005 0.9995 0.0000
vt 0.4023 0.8991 0.0000
vt 0.4131 0.7485 0.0000
vt 0.7932 0.8740 0.0000
vt 0.7823 0.7234 0.0000
vt 0.2448 0.8238 0.0000
vt 0.2828 0.6858 0.0000
vt 0.7715 0.0439 0.0000
vt 0.7715 0.1308 0.0000
vt 0.4240 0.0874 0.0000
vt 0.4240 0.0005 0.0000
vt 0.3208 0.0439 0.0000
vt 0.3208 0.1308 0.0000
vt 0.7715 0.5226 0.0000
vt 0.4240 0.5226 0.0000
vt 0.3208 0.5226 0.0000
vt 0.2828 0.5226 0.0000
vt 0.1960 0.5226 0.0000
vt 0.1960 0.3045 0.0000
vt 0.1960 0.2177 0.0000
vt 0.3914 0.9744 0.0000
vt 0.8040 0.9744 0.0000
vt 0.2448 0.4566 0.0000
vt 0.1091 0.5226 0.0000
vt 0.2122 0.8489 0.0000
vt 0.0548 0.5226 0.0000
vt 0.9995 0.7389 0.0000
vt 0.9995 0.9561 0.0000
vt 0.9995 0.7987 0.0000
vt 0.9995 0.8740 0.0000
vt 0.9995 0.6481 0.0000
vt 0.9452 0.5226 0.0000
vt 0.0222 0.8489 0.0000
vt 0.0005 0.8991 0.0000
vt 0.0222 0.9561 0.0000
vt 0.0222 0.7389 0.0000
vt 0.9452 0.2177 0.0000
vt 0.9452 0.3045 0.0000
vt 0.8909 0.5276 0.0000
vt 0.8040 0.5276 0.0000
vt 0.9452 0.5276 0.0000
vt 0.9778 0.5276 0.0000
vt 0.4722 0.8258 0.0000
vt 0.5224 0.8258 0.0000
vt 0.5224 0.9995 0.0000
vt 0.4722 0.9995 0.0000
vt 0.7172 0.6907 0.0000
vt 0.5869 0.7534 0.0000
vt 0.5869 0.2515 0.0000
vt 0.2177 0.7283 0.0000
vt 0.2177 0.2766 0.0000
vt 0.4131 0.7534 0.0000
vt 0.0005 0.6530 0.0000
vt 0.0005 0.3519 0.0000
vt 0.9995 0.6530 0.0000
vt 0.4724 0.2177 0.0000
vt 0.5226 0.2177 0.0000
vt 0.5226 0.3045 0.0000
vt 0.4724 0.3045 0.0000
vt 0.9995 0.4774 0.0000
vt 0.9995 0.5276 0.0000
vt 0.7715 0.5276 0.0000
vt 0.4240 0.5276 0.0000
vt 0.3208 0.5276 0.0000
vt 0.1960 0.5276 0.0000
vt 0.0765 0.5276 0.0000
vt 0.0765 0.4774 0.0000
vt 0.0331 0.5276 0.0000
vt 0.0331 0.4774 0.0000
vt 0.0005 0.5276 0.0000
vt 0.0005 0.4774 0.0000
vt 0.9516 0.5278 0.0000
vt 0.0458 0.6520 0.0000
vt 0.0458 0.5652 0.0000
vt 0.9493 0.6520 0.0000
vt 0.9493 0.5652 0.0000
vt 0.9542 0.5652 0.0000
vt 0.9542 0.6520 0.0000
vt 0.0507 0.5652 0.0000
vt 0.0507 0.6520 0.0000
vt 0.2611 0.9542 0.0000
vt 0.1851 0.9542 0.0000
vt 0.2611 0.0507 0.0000
vt 0.6194 0.9542 0.0000
vt 0.5434 0.9542 0.0000
vt 0.5434 0.0507 0.0000
vt 0.1511 0.9561 0.0000
vt 0.1511 0.7389 0.0000
vt 0.8538 0.7389 0.0000
vt 0.8538 0.9561 0.0000
vt 0.0222 0.8538 0.0000
vt 0.0005 0.9040 0.0000
vt 0.7987 0.5217 0.0000
vt 0.1964 0.5217 0.0000
vt 0.3470 0.3914 0.0000
vt 0.6481 0.3914 0.0000
vt 0.8740 0.7389 0.0000
vt 0.1211 0.7389 0.0000
vt 0.8991 0.9561 0.0000
vt 0.0960 0.9561 0.0000
# 191 texture coords

g Layer_02zw
usemtl Material__61
s off
f 1/1/1 2/2/1 3/3/1 
f 1/1/2 3/3/2 4/4/2 
f 5/5/3 6/6/3 7/7/3 
f 7/7/3 8/8/3 5/5/3 
f 8/8/4 7/7/4 4/4/4 
f 1/1/4 4/4/4 7/7/4 
f 9/9/5 10/10/5 11/11/5 
f 12/12/5 11/11/5 10/10/5 
f 13/13/6 7/14/6 6/15/6 
f 6/15/6 14/16/6 13/13/6 
f 1/17/7 7/14/7 15/18/7 
f 15/18/8 7/14/8 13/13/8 
f 11/11/9 2/19/9 1/17/9 
f 11/11/10 1/17/10 15/18/10 
f 3/20/11 16/21/11 17/22/11 
f 17/22/11 4/23/11 3/20/11 
f 4/23/12 17/22/12 8/24/12 
f 18/25/12 8/24/12 17/22/12 
f 8/24/13 18/25/13 19/26/13 
f 19/26/13 5/27/13 8/24/13 
f 11/11/5 12/12/5 20/28/5 
f 20/28/5 2/19/5 11/11/5 
f 21/29/14 22/30/14 23/31/14 
f 21/29/15 23/31/15 24/32/15 
f 22/33/16 25/34/16 26/35/16 
f 26/36/17 22/30/17 21/29/17 
f 27/37/5 28/38/5 29/39/5 
f 30/40/5 29/39/5 28/38/5 
f 29/39/5 30/40/5 31/41/5 
f 31/41/5 32/42/5 29/39/5 
f 21/29/18 24/32/18 27/43/18 
f 21/29/19 27/43/19 29/44/19 
f 21/29/20 29/44/20 32/45/20 
f 21/29/21 32/45/21 26/36/21 
f 32/45/22 33/46/22 26/36/22 
f 26/36/23 33/46/23 34/47/23 
f 32/42/5 31/41/5 34/48/5 
f 35/49/5 34/48/5 31/41/5 
f 22/30/24 13/50/24 14/51/24 
f 22/30/25 14/51/25 23/31/25 
f 13/50/26 22/30/26 25/52/26 
f 13/13/27 25/53/27 15/18/27 
f 9/54/28 34/55/28 25/34/28 
f 25/34/29 34/55/29 26/35/29 
f 25/52/30 9/56/30 15/57/30 
f 15/57/31 9/56/31 11/58/31 
f 34/48/5 35/49/5 10/10/5 
f 10/10/5 9/9/5 34/48/5 
f 14/16/32 6/15/32 36/59/32 
f 36/59/33 6/15/33 37/60/33 
f 23/31/34 14/51/34 38/61/34 
f 38/61/35 14/51/35 36/62/35 
f 24/32/36 23/31/36 39/63/36 
f 39/63/37 23/31/37 38/61/37 
f 27/43/38 24/32/38 40/64/38 
f 40/64/39 24/32/39 39/63/39 
f 5/5/40 41/65/40 6/6/40 
f 6/6/41 41/65/41 37/66/41 
f 5/27/42 19/26/42 41/67/42 
f 42/68/42 41/67/42 19/26/42 
f 40/69/5 43/70/5 28/38/5 
f 28/38/5 27/37/5 40/69/5 
f 44/71/43 45/72/43 46/73/43 
f 46/73/2 45/72/2 47/74/2 
f 48/75/3 49/76/3 50/77/3 
f 51/78/3 50/77/3 49/76/3 
f 50/77/4 51/78/4 47/74/4 
f 47/74/4 45/72/4 50/77/4 
f 52/79/13 53/80/13 54/81/13 
f 54/81/13 55/82/13 52/79/13 
f 50/24/44 56/83/44 48/27/44 
f 57/84/44 48/27/44 56/83/44 
f 50/24/45 45/23/45 58/85/45 
f 50/24/46 58/85/46 56/83/46 
f 44/86/47 54/81/47 45/23/47 
f 45/23/48 54/81/48 58/85/48 
f 59/87/49 46/88/49 60/89/49 
f 47/17/49 60/89/49 46/88/49 
f 60/89/50 47/17/50 51/14/50 
f 51/14/50 61/90/50 60/89/50 
f 61/90/5 51/14/5 62/91/5 
f 49/15/5 62/91/5 51/14/5 
f 55/82/13 54/81/13 63/92/13 
f 44/86/13 63/92/13 54/81/13 
f 64/93/51 65/94/51 66/95/51 
f 66/95/52 65/94/52 67/96/52 
f 64/93/53 68/97/53 69/98/53 
f 64/93/54 69/98/54 65/94/54 
f 70/99/13 71/100/13 72/101/13 
f 72/101/13 73/102/13 70/99/13 
f 73/102/13 72/101/13 74/103/13 
f 75/104/13 74/103/13 72/101/13 
f 67/96/55 65/94/55 71/105/55 
f 71/105/56 65/94/56 72/106/56 
f 72/106/57 65/94/57 75/107/57 
f 75/107/58 65/94/58 69/98/58 
f 76/108/59 75/107/59 69/98/59 
f 76/108/60 69/98/60 77/109/60 
f 74/103/13 75/104/13 77/110/13 
f 77/110/13 78/111/13 74/103/13 
f 56/112/61 64/93/61 57/113/61 
f 57/113/62 64/93/62 66/95/62 
f 64/93/63 56/112/63 68/97/63 
f 68/114/64 56/83/64 58/85/64 
f 53/115/65 77/109/65 68/97/65 
f 68/97/66 77/109/66 69/98/66 
f 53/115/67 68/97/67 58/116/67 
f 53/115/68 58/116/68 54/117/68 
f 78/111/13 77/110/13 52/79/13 
f 53/80/13 52/79/13 77/110/13 
f 48/27/69 57/84/69 79/118/69 
f 48/27/70 79/118/70 80/119/70 
f 57/113/71 66/95/71 81/120/71 
f 57/113/72 81/120/72 79/121/72 
f 66/95/73 67/96/73 82/122/73 
f 66/95/74 82/122/74 81/120/74 
f 67/96/75 71/105/75 83/123/75 
f 67/96/76 83/123/76 82/122/76 
f 84/124/40 49/76/40 48/75/40 
f 84/124/77 48/75/77 80/125/77 
f 62/91/78 49/15/78 84/126/78 
f 84/126/78 85/127/78 62/91/78 
f 86/128/13 83/129/13 70/99/13 
f 71/100/13 70/99/13 83/129/13 
f 9/54/79 87/130/79 34/55/79 
f 88/131/79 34/55/79 87/130/79 
f 11/64/80 89/132/80 87/130/80 
f 87/130/80 9/54/80 11/64/80 
f 2/2/81 90/133/81 11/64/81 
f 89/132/81 11/64/81 90/133/81 
f 91/134/82 16/135/82 3/136/82 
f 3/136/82 92/137/82 91/134/82 
f 93/138/83 26/35/83 34/55/83 
f 34/55/83 88/131/83 93/138/83 
f 94/139/84 21/140/84 26/35/84 
f 26/35/84 93/138/84 94/139/84 
f 95/141/3 24/142/3 94/139/3 
f 94/143/85 21/29/85 24/32/85 
f 24/142/86 95/141/86 96/144/86 
f 96/144/86 39/145/86 24/142/86 
f 97/132/87 40/64/87 96/146/87 
f 39/63/87 96/146/87 40/64/87 
f 98/147/82 43/148/82 40/149/82 
f 40/149/82 97/150/82 98/147/82 
f 2/2/3 20/151/3 90/133/3 
f 99/152/3 90/133/3 20/151/3 
f 100/153/88 28/43/88 43/64/88 
f 43/64/88 98/132/88 100/153/88 
f 101/154/89 30/44/89 100/153/89 
f 28/43/89 100/153/89 30/44/89 
f 102/155/90 31/45/90 30/44/90 
f 30/44/90 101/154/90 102/155/90 
f 103/156/91 35/47/91 102/155/91 
f 31/45/91 102/155/91 35/47/91 
f 104/157/92 10/158/92 35/47/92 
f 35/47/92 103/156/92 104/157/92 
f 105/159/93 12/160/93 104/157/93 
f 10/158/93 104/157/93 12/160/93 
f 99/161/94 20/162/94 12/160/94 
f 12/160/94 105/159/94 99/161/94 
f 92/163/3 3/3/3 90/133/3 
f 2/2/3 90/133/3 3/3/3 
f 106/164/82 107/165/82 19/166/82 
f 108/167/82 19/166/82 107/165/82 
f 109/168/95 110/169/95 111/170/95 
f 112/171/95 111/170/95 110/169/95 
f 113/168/95 114/169/95 115/170/95 
f 18/171/95 115/170/95 114/169/95 
f 116/164/82 117/165/82 118/166/82 
f 119/167/82 118/166/82 117/165/82 
f 110/172/3 106/173/3 112/174/3 
f 19/5/3 112/174/3 106/173/3 
f 114/175/3 116/176/3 18/8/3 
f 118/177/3 18/8/3 116/176/3 
f 41/178/95 42/179/95 120/180/95 
f 120/180/95 121/181/95 41/178/95 
f 121/182/3 122/183/3 41/65/3 
f 37/66/3 41/65/3 122/183/3 
f 38/184/82 123/185/82 96/186/82 
f 96/186/82 39/187/82 38/184/82 
f 36/188/82 124/189/82 38/184/82 
f 123/185/82 38/184/82 124/189/82 
f 37/190/82 122/191/82 124/189/82 
f 124/189/82 36/188/82 37/190/82 
# 0 polygons - 184 triangles

